<svg xmlns="http://www.w3.org/2000/svg" viewBox="0 0 64 64" width="64" height="64">
  <!-- Shield -->
  <path d="M 32 8 L 48 16 L 48 32 C 48 44 32 56 32 56 C 32 56 16 44 16 32 L 16 16 Z" 
        fill="currentColor" opacity="0.2" stroke="currentColor" stroke-width="1.5" stroke-linejoin="round"/>
  
  <!-- Shield solid outline -->
  <path d="M 32 10 L 46 17 L 46 32 C 46 43 32 54 32 54 C 32 54 18 43 18 32 L 18 17 Z" 
        fill="none" stroke="currentColor" stroke-width="1.5" stroke-linejoin="round"/>
  
  <!-- Checkmark inside -->
  <g transform="translate(32, 32)">
    <!-- Checkmark circle -->
    <circle cx="0" cy="0" r="14" fill="currentColor" opacity="0.15"/>
    
    <!-- Checkmark path -->
    <path d="M -4 2 L 0 6 L 6 -2" 
          stroke="currentColor" stroke-width="2.5" fill="none" 
          stroke-linecap="round" stroke-linejoin="round"/>
  </g>
  
  <!-- Decorative stars at top corners -->
  <g transform="translate(20, 16)">
    <path d="M 0 -2 L 0.5 -0.5 L 2 0 L 0.5 0.5 L 0 2 L -0.5 0.5 L -2 0 L -0.5 -0.5 Z" 
          fill="currentColor" opacity="0.7"/>
  </g>
  
  <g transform="translate(44, 16)">
    <path d="M 0 -2 L 0.5 -0.5 L 2 0 L 0.5 0.5 L 0 2 L -0.5 0.5 L -2 0 L -0.5 -0.5 Z" 
          fill="currentColor" opacity="0.7"/>
  </g>
</svg>